<?xml version="1.0" ?><!DOCTYPE svg  PUBLIC '-//W3C//DTD SVG 1.1//EN'  'http://www.w3.org/Graphics/SVG/1.1/DTD/svg11.dtd'><svg enable-background="new 0 0 512 512" id="Layer_1" version="1.1" viewBox="0 0 512 512" xml:space="preserve" xmlns="http://www.w3.org/2000/svg" xmlns:xlink="http://www.w3.org/1999/xlink"><linearGradient gradientUnits="userSpaceOnUse" id="SVGID_1_" x1="256" x2="256" y1="512" y2="-9.094947e-013"><stop offset="0" style="stop-color:#514A9D"/><stop offset="1" style="stop-color:#24C6DC"/></linearGradient><circle cx="256" cy="256" fill="url(#SVGID_1_)" r="256"/><path d="M350.2,162.6c-4.6-4.7-9.5-8.9-14.6-12.7c-1.4-1.1-2.9-2.1-4.3-3.1c-5.5-3.9-11.3-7.3-17.3-10.2  c-1.9-0.9-3.8-1.8-5.8-2.6s-3.9-1.6-5.9-2.3c-1.7-0.7-3.4-1.3-5.1-1.8c-0.3-0.1-0.6-0.2-1-0.3c-1.1-0.3-2.2-0.7-3.3-1  c-1.1-0.3-2.1-0.6-3.2-0.9c-1.9-0.5-3.7-0.9-5.6-1.3c-1-0.2-1.9-0.4-2.9-0.6c-1.5-0.3-3-0.6-4.4-0.8c-1.9-0.3-3.8-0.6-5.8-0.8  c-1.4-0.2-2.8-0.3-4.2-0.4c-0.7,0-1.4-0.1-2-0.1c-1.1-0.1-2.1-0.1-3.2-0.1c-0.4,0-0.9,0-1.4,0c-0.5-0.1-1-0.1-1.4-0.1l0,0  c-0.5,0-1,0-1.6,0H256c-0.5,0-1.1,0-1.6,0c0,0,0,0,0.1,0c-1.8,0-3.5,0.1-5.3,0.2c-1.8,0-3.6,0.2-5.4,0.4c-0.6,0-1.2,0.1-1.7,0.1  c-2,0.2-4,0.5-5.9,0.8c-0.1,0-0.3,0-0.4,0c-2,0.3-3.9,0.6-5.9,1.1c-0.2,0-0.4,0-0.7,0.1c-1.2,0.2-2.5,0.5-3.7,0.8  c-1.2,0.2-2.4,0.5-3.6,0.9c-0.3,0.1-0.7,0.2-1,0.3c-1.8,0.5-3.5,1-5.3,1.6c-0.1,0-0.2,0-0.3,0.1c-2,0.6-3.9,1.3-5.9,2  c-14.3,5.3-27.3,13.1-38.8,22.8c-1.5,1.2-2.9,2.5-4.3,3.7c-1.6,1.5-3.1,2.9-4.6,4.4c-1.5,1.5-3,3.1-4.4,4.6c-2.8,3.2-5.5,6.4-8,9.8  c-1.3,1.7-2.5,3.4-3.6,5.2c-1.1,1.6-2.2,3.2-3.2,4.9c-1.1,1.8-2.2,3.7-3.2,5.6c-1,1.7-1.9,3.5-2.8,5.3c-1.3,2.6-2.5,5.3-3.5,8  c-0.6,1.5-1.3,3.1-1.8,4.6c-2.9,8-5.1,16.4-6.4,25.1c-0.2,1.6-0.5,3.2-0.6,4.8c-0.6,5-0.9,10.2-0.9,15.4l0,0l0,0l0,0  c0,5.2,0.3,10.4,0.9,15.4c0.1,1.6,0.4,3.2,0.6,4.8c1.7,11.2,4.8,22,9.2,32.1c0.7,1.7,1.5,3.4,2.3,5.1c0.9,1.9,1.9,3.8,3,5.7  c1,1.9,2.1,3.7,3.2,5.6c1,1.6,2,3.3,3.2,4.9c1.2,1.8,2.4,3.5,3.6,5.2c2.5,3.4,5.2,6.7,8,9.8c1.4,1.6,2.9,3.1,4.4,4.6  c1.5,1.5,3,3,4.6,4.4c1.4,1.3,2.8,2.5,4.3,3.7c5.6,4.8,11.6,9.1,18,12.8c1.4,0.9,2.8,1.7,4.3,2.5c1.9,1,3.8,2,5.7,3  c4.2,2,8.6,3.9,13,5.4c1.6,0.6,3.3,1.2,5,1.7c2,0.6,4.1,1.2,6.2,1.8c0.2,0,0.3,0,0.5,0.1c1.9,0.5,3.9,0.9,5.8,1.3  c0.2,0.1,0.4,0.1,0.7,0.1c2,0.4,3.9,0.8,5.9,1.1c0.1,0,0.2,0,0.4,0c1.9,0.3,3.9,0.6,5.9,0.8c0.6,0,1.2,0.1,1.7,0.1  c1.8,0.2,3.6,0.3,5.4,0.4c1.7,0.1,3.4,0.1,5.2,0.1c0.5,0.1,1.1,0.1,1.6,0.1h1.1c0.5,0,1.1,0,1.6-0.1c0.5,0,1,0,1.5,0  c0.4,0,0.9,0,1.4,0c1,0,2,0,3.1-0.1c2-0.1,4.1-0.3,6.2-0.5c1.9-0.2,3.9-0.4,5.9-0.8c1.6-0.2,3.3-0.5,4.9-0.9  c2.7-0.5,5.3-1.1,7.9-1.7c1.6-0.4,3.1-0.9,4.6-1.3c13.3-4,25.8-10,37.3-17.9c1.5-1,2.9-2,4.3-3.1c5.1-3.8,10-8,14.6-12.7  c24.8-25,38.5-58.2,38.5-93.4C388.7,220.7,375,187.6,350.2,162.6z M276.1,135.5c4,0.7,7.9,1.5,11.7,2.6c1.9,0.5,3.8,1.1,5.7,1.7  c1.9,0.6,3.8,1.3,5.6,2c5.8,2.2,11.4,4.8,16.7,7.9c1.5,0.8,2.9,1.6,4.3,2.6c9.9,6.2,18.9,13.7,26.7,22.4c2.6,2.9,5.1,5.9,7.4,9.1  c1.2,1.6,2.3,3.2,3.4,4.8c2.1,3.2,4.2,6.6,6,10c2.8,5.2,5.2,10.5,7.2,16.1c1.3,3.4,2.3,6.9,3.2,10.4c0.6,2.2,1.2,4.5,1.6,6.7  c0.3,1.3,0.5,2.6,0.7,3.9c0.9,5,1.3,10.1,1.6,15.3h-54.7c-1.3-43-18.5-83.2-49.1-113.8c-0.7-0.7-1.4-1.4-2.1-2.1  C273.5,135,274.8,135.2,276.1,135.5z M266.9,367.6c-3.3,3.3-6.8,6.5-10.3,9.5c-3.6-3-7.1-6.2-10.4-9.5  c-28.6-28.6-44.7-66.2-46-106.4h112.8C311.6,301.4,295.5,339.1,266.9,367.6z M200.1,250.8c1.3-40.2,17.4-77.8,46-106.4  c3.3-3.3,6.8-6.5,10.4-9.5c3.6,3,7,6.2,10.4,9.5c28.6,28.6,44.7,66.2,46,106.4H200.1z M143.3,208.7c0.6-1.5,1.3-3,2-4.5  c3.5-7.6,7.8-14.7,12.8-21.3c1.2-1.6,2.4-3.1,3.6-4.6c2.5-3,5.1-5.9,7.9-8.7c1.4-1.4,2.8-2.8,4.3-4.1c1.4-1.4,2.9-2.6,4.4-3.8  c1.5-1.3,3.1-2.5,4.6-3.6c1.6-1.2,3.2-2.3,4.8-3.4c1.6-1.1,3.2-2.2,4.9-3.2c1.7-1,3.4-2,5.1-3c1.7-0.9,3.5-1.8,5.2-2.7  c1.8-0.9,3.6-1.7,5.4-2.5c4.3-1.8,8.8-3.4,13.3-4.7c1.2-0.4,2.4-0.8,3.7-1.1c1.9-0.5,3.9-1,5.9-1.4c2-0.4,4-0.8,6-1.1  c1.2-0.2,2.4-0.4,3.7-0.5c-0.8,0.7-1.6,1.5-2.3,2.2c-30.6,30.6-47.7,70.8-49.1,113.8H134C134.7,235.9,137.8,221.7,143.3,208.7z   M225.5,374.4c-1.3-0.3-2.5-0.6-3.7-1.1c-0.9-0.2-1.8-0.4-2.7-0.8c-1.9-0.6-3.8-1.2-5.6-1.9c-1.7-0.6-3.3-1.3-5-2  c-1.3-0.5-2.6-1.1-3.9-1.7c-22.3-10.4-40.9-27.3-53.5-48.2c-0.9-1.5-1.8-3.1-2.6-4.6c-1.1-2-2.1-4.1-3.1-6.2c-0.7-1.5-1.4-3-2-4.5  c-5.5-13-8.7-27.2-9.3-42.1h55.7c1.3,43,18.5,83.2,49.1,113.8c0.8,0.8,1.6,1.6,2.3,2.2c-1.5-0.1-3-0.3-4.4-0.6  C232.8,376.1,229.1,375.3,225.5,374.4z M375.7,280.4c-0.4,2.2-1,4.5-1.6,6.7c-0.9,3.5-2,7-3.2,10.4c-2,5.6-4.4,10.9-7.2,16.1  c-0.8,1.5-1.6,2.9-2.5,4.4c-0.1,0.3-0.3,0.6-0.5,1c-1.7,2.8-3.5,5.6-5.5,8.2c-10.6,14.7-24.4,27.1-40.4,35.9  c-3.2,1.7-6.5,3.4-9.8,4.8c-7.3,3.2-14.9,5.7-22.8,7.4c-1.9,0.4-3.9,0.8-5.9,1.2c-0.7,0.1-1.4,0.2-2.1,0.3c-0.6,0.1-1.3,0.2-1.9,0.2  c0.7-0.6,1.4-1.3,2.1-2c30.6-30.6,47.7-70.8,49.1-113.8H378c-0.2,5.2-0.7,10.3-1.6,15.3C376.3,277.8,376,279.1,375.7,280.4z" fill="#FFFFFF"/></svg>